<svg _ngcontent-c4="" class="ng-tns-c4-2" viewBox="0 0 446.921 110.92" xmlns="http://www.w3.org/2000/svg">
    <path _ngcontent-c4="" class="cls-1" style="color:#AAAAAA;"
    d=" M3844.9-33.994V-87.122l-20.812-5.749v44.835c0,.533-.214.981-.732.981a.963.963,0,0,1-.957-.981l-.079-45.862a.932.932,0,0,1,.6-.9c22.345,5.845,23.6,6.237,23.6,6.8l.079,53.908a.987.987,0,0,1-.956,1.008C3845.1-33.08,3844.9-33.434,3844.9-33.994Zm34.862-1.772V-55.6a.891.891,0,0,1,.006-.1,5.3,5.3,0,0,1-3.011-1.507,5.381,5.381,0,0,1-1.587-3.79,5.391,5.391,0,0,1,1.587-3.81,5.31,5.31,0,0,1,3.788-1.563,5.309,5.309,0,0,1,3.788,1.563,5.386,5.386,0,0,1,1.587,3.81,5.376,5.376,0,0,1-1.587,3.79,5.293,5.293,0,0,1-2.9,1.49.88.88,0,0,1,.008.117v19.838a.849.849,0,0,1-.851.852A.844.844,0,0,1,3879.758-35.766Zm-1.821-27.861A3.6,3.6,0,0,0,3876.846-61a3.588,3.588,0,0,0,1.091,2.6,3.68,3.68,0,0,0,2.6,1.089,3.689,3.689,0,0,0,2.6-1.089,3.593,3.593,0,0,0,1.088-2.6,3.606,3.606,0,0,0-1.088-2.627,3.689,3.689,0,0,0-2.6-1.089A3.68,3.68,0,0,0,3877.937-63.627Zm-92.816,27.861V-55.6a.879.879,0,0,1,.008-.117,5.293,5.293,0,0,1-2.9-1.49,5.377,5.377,0,0,1-1.587-3.79,5.387,5.387,0,0,1,1.587-3.81,5.308,5.308,0,0,1,3.787-1.563,5.307,5.307,0,0,1,3.788,1.563,5.381,5.381,0,0,1,1.586,3.81,5.371,5.371,0,0,1-1.586,3.79,5.292,5.292,0,0,1-3.01,1.507.892.892,0,0,1,.006.1v19.838a.844.844,0,0,1-.828.852A.849.849,0,0,1,3785.121-35.766Zm-1.707-27.861A3.614,3.614,0,0,0,3782.327-61a3.6,3.6,0,0,0,1.088,2.6,3.694,3.694,0,0,0,2.6,1.089,3.682,3.682,0,0,0,2.6-1.089,3.591,3.591,0,0,0,1.09-2.6,3.6,3.6,0,0,0-1.09-2.627,3.682,3.682,0,0,0-2.6-1.089A3.694,3.694,0,0,0,3783.415-63.627Zm-80,27.861V-55.6a.88.88,0,0,1,.008-.117,5.3,5.3,0,0,1-2.9-1.49,5.379,5.379,0,0,1-1.586-3.79,5.389,5.389,0,0,1,1.586-3.81,5.309,5.309,0,0,1,3.787-1.563,5.309,5.309,0,0,1,3.789,1.563,5.385,5.385,0,0,1,1.586,3.81,5.375,5.375,0,0,1-1.586,3.79,5.292,5.292,0,0,1-3.011,1.507.892.892,0,0,1,.006.1v19.838a.844.844,0,0,1-.828.852A.849.849,0,0,1,3703.412-35.766Zm-1.706-27.861A3.61,3.61,0,0,0,3700.618-61a3.6,3.6,0,0,0,1.088,2.6,3.692,3.692,0,0,0,2.6,1.089,3.685,3.685,0,0,0,2.6-1.089A3.591,3.591,0,0,0,3708-61a3.6,3.6,0,0,0-1.089-2.627,3.685,3.685,0,0,0-2.6-1.089A3.692,3.692,0,0,0,3701.707-63.627ZM3866.184-37.4l.582-39.151-18.37,4.805a.826.826,0,0,1-1.019-.591.841.841,0,0,1,.615-1.019l19.318-5.066a.606.606,0,0,1,.284-.047.83.83,0,0,1,.852.829l-.583,40.239a.829.829,0,0,1-.851.829A.822.822,0,0,1,3866.184-37.4Zm-67.492,0V-90.426a.83.83,0,0,1,.853-.829.6.6,0,0,1,.283.047l5.874,1.54v-15.72l-13.3,3.835v35.247a.838.838,0,0,1-.829.828.846.846,0,0,1-.854-.828v-35.885a.817.817,0,0,1,.665-.805l14.938-4.308a.868.868,0,0,1,1.042.567c0,.095.023.166.023.237v17.274l11.764,3.085a.84.84,0,0,1,.615,1.019.826.826,0,0,1-1.018.592l-18.372-4.806V-37.4a.821.821,0,0,1-.827.829A.83.83,0,0,1,3798.692-37.4Zm-81.707,0V-90.426a.829.829,0,0,1,.852-.829.6.6,0,0,1,.283.047l5.874,1.54v-15.72l-13.3,3.835v13a.84.84,0,0,1-.83.829.847.847,0,0,1-.853-.829v-13.636a.816.816,0,0,1,.664-.805l14.938-4.308a.868.868,0,0,1,1.042.567c0,.095.023.166.023.237v17.274l11.765,3.085a.84.84,0,0,1,.615,1.019.826.826,0,0,1-1.018.592l-18.372-4.806V-37.4a.821.821,0,0,1-.827.829A.829.829,0,0,1,3716.985-37.4Zm171.79-1.51V-76.79a.757.757,0,0,1,.829-.639h9.987c.474,0-.418,1.279-.418,1.279h-8.741v37.239c0,.354-.355.639-.828.639A.757.757,0,0,1,3888.775-38.911Zm-125.751,0V-76.15H3755q.041.468.041.946a10.711,10.711,0,0,1-2.818,7.269,10.811,10.811,0,0,1-6.983,3.5.828.828,0,0,1-.9-.757.832.832,0,0,1,.757-.924A9.117,9.117,0,0,0,3751-69.048a9.179,9.179,0,0,0,2.368-6.156,9.07,9.07,0,0,0-2.676-6.439,9.086,9.086,0,0,0-6.462-2.674,9.062,9.062,0,0,0-5.752,2.035,9.218,9.218,0,0,0-3.2,5.255.8.8,0,0,1-.971.64.829.829,0,0,1-.662-.971,10.845,10.845,0,0,1,3.764-6.2A10.8,10.8,0,0,1,3744.226-86a10.771,10.771,0,0,1,7.646,3.173,10.655,10.655,0,0,1,2.944,5.4h9.036a.757.757,0,0,1,.829.639v37.879a.757.757,0,0,1-.829.639C3763.378-38.272,3763.024-38.557,3763.024-38.911Zm-81.708,0V-76.15H3673.3q.041.468.041.946a10.711,10.711,0,0,1-2.818,7.269,10.981,10.981,0,0,1-3.574,2.6v14.325a.772.772,0,0,1-.829.662.782.782,0,0,1-.852-.662V-64.737a10.729,10.729,0,0,1-1.728.306.828.828,0,0,1-.9-.757.832.832,0,0,1,.757-.924,9.118,9.118,0,0,0,5.894-2.935,9.18,9.18,0,0,0,2.368-6.156,9.069,9.069,0,0,0-2.676-6.439,9.085,9.085,0,0,0-6.462-2.674,9.067,9.067,0,0,0-5.754,2.035,9.221,9.221,0,0,0-3.2,5.255.8.8,0,0,1-.971.64.829.829,0,0,1-.662-.971,10.845,10.845,0,0,1,3.764-6.2A10.8,10.8,0,0,1,3662.518-86a10.772,10.772,0,0,1,7.646,3.173,10.653,10.653,0,0,1,2.944,5.4h9.036a.756.756,0,0,1,.828.639v37.879a.756.756,0,0,1-.828.639C3681.67-38.272,3681.316-38.557,3681.316-38.911Zm-25.521.38v-5.812a6.965,6.965,0,0,1-4.026-1.979,6.958,6.958,0,0,1-2.035-4.923,6.966,6.966,0,0,1,2.035-4.925,6.964,6.964,0,0,1,4.925-2.037,6.963,6.963,0,0,1,4.925,2.037,6.966,6.966,0,0,1,2.035,4.925,6.958,6.958,0,0,1-2.035,4.923,6.964,6.964,0,0,1-4.143,1.994v5.8c0,.136-.38.236-.852.236C3656.174-38.3,3655.8-38.4,3655.8-38.531Zm-2.842-16.455a5.275,5.275,0,0,0-1.539,3.741,5.273,5.273,0,0,0,1.539,3.74,5.276,5.276,0,0,0,3.741,1.538,5.274,5.274,0,0,0,3.74-1.538,5.269,5.269,0,0,0,1.539-3.74,5.271,5.271,0,0,0-1.539-3.741,5.274,5.274,0,0,0-3.74-1.538A5.276,5.276,0,0,0,3652.954-54.986Zm-7.5,15.128V-82.045h-24.621A.844.844,0,0,1,3620-82.9a.839.839,0,0,1,.829-.829h25.448a.844.844,0,0,1,.853.829V-72.5h5.565a.838.838,0,0,1,.828.829.843.843,0,0,1-.828.851h-5.565v30.967a.844.844,0,0,1-.853.828A.838.838,0,0,1,3645.449-39.858Zm296.264-2.781V-109.83l-18.5,7.364v40.613a.879.879,0,0,1-.868.869.863.863,0,0,1-.868-.869v-30.29a.87.87,0,0,1-.746.141l-19.242-5.033v54.4a.861.861,0,0,1-.865.868.869.869,0,0,1-.894-.868V-98.177a.87.87,0,0,1,.894-.868.625.625,0,0,1,.3.05l20.234,5.305a.922.922,0,0,1,.324.158v-9.532a.829.829,0,0,1,.546-.793l20.159-8.058a1.031,1.031,0,0,1,.4-.1.885.885,0,0,1,.868.893v68.481a.885.885,0,0,1-.868.893A.868.868,0,0,1,3941.712-42.639Zm57.825-1.211V-90.778c-.027,0-.055,0-.083,0h-6.72a.883.883,0,0,1-.867-.892.878.878,0,0,1,.867-.868h6.72c.028,0,.055,0,.083,0v-8.257a.885.885,0,0,1,.893-.869h26.655a.831.831,0,0,1,.089,0v-2.17a.889.889,0,0,1,.892-.892.884.884,0,0,1,.869.892v2.728a.878.878,0,0,1-.869.868.908.908,0,0,1-.277-.043.864.864,0,0,1-.7.373H4001.3V-43.85a.879.879,0,0,1-.868.868A.884.884,0,0,1,3999.538-43.85Zm-49.92-.4V-72.2a.883.883,0,0,1,.867-.892.888.888,0,0,1,.892.892v27.947a.888.888,0,0,1-.892.892A.883.883,0,0,1,3949.617-44.254Zm80.515-1.211V-75.875s1.762-.372,1.762,0v30.411a.82.82,0,0,1-.894.694A.81.81,0,0,1,4030.132-45.464Zm-197.658.089a.845.845,0,0,1-.852-.83.85.85,0,0,1,.852-.851h2.558a.829.829,0,0,1,.829.851.824.824,0,0,1-.829.83Zm232.686-1.453V-91.014h-26.7a11.3,11.3,0,0,1,.458,3.2,11.212,11.212,0,0,1-2.951,7.613,11.333,11.333,0,0,1-7.314,3.669.867.867,0,0,1-.942-.794.871.871,0,0,1,.793-.967,9.553,9.553,0,0,0,6.174-3.074,9.619,9.619,0,0,0,2.479-6.448,9.5,9.5,0,0,0-2.8-6.745,9.519,9.519,0,0,0-6.769-2.8,9.488,9.488,0,0,0-6.025,2.132,9.642,9.642,0,0,0-3.348,5.5.842.842,0,0,1-1.017.67.869.869,0,0,1-.694-1.017,11.361,11.361,0,0,1,3.942-6.5,11.314,11.314,0,0,1,7.142-2.555,11.278,11.278,0,0,1,8.008,3.323,11.177,11.177,0,0,1,2.19,3.049.836.836,0,0,1,.188-.021h28.056a.885.885,0,0,1,.893.869v45.077a.885.885,0,0,1-.893.869A.879.879,0,0,1,4065.159-46.829Zm-171.341-1.15v-2.58a.847.847,0,0,1,.852-.851.841.841,0,0,1,.828.851v2.58a.842.842,0,0,1-.828.852A.848.848,0,0,1,3893.819-47.979Zm-135.863,0v-2.58a.842.842,0,0,1,.829-.851.847.847,0,0,1,.852.851v2.58a.848.848,0,0,1-.852.852A.843.843,0,0,1,3757.956-47.979Zm-81.708,0v-2.58a.842.842,0,0,1,.829-.851.847.847,0,0,1,.852.851v2.58a.848.848,0,0,1-.852.852A.843.843,0,0,1,3676.248-47.979Zm156.226-2.368a.83.83,0,0,1-.852-.829.829.829,0,0,1,.852-.828h2.558a.809.809,0,0,1,.829.828.81.81,0,0,1-.829.829Zm-199.051-2.838V-77.379c0-.451.237-.83.522-.83s.521.379.521.83v24.194c0,.45-.237.829-.521.829S3633.423-52.736,3633.423-53.186Zm177.7-.167V-79.7a.843.843,0,0,1,.853-.829.84.84,0,0,1,.829.829v26.348a.824.824,0,0,1-.829.829A.829.829,0,0,1,3811.122-53.353Zm-81.708,0V-79.7a.843.843,0,0,1,.853-.829.839.839,0,0,1,.829.829v26.348a.824.824,0,0,1-.829.829A.828.828,0,0,1,3729.414-53.353Zm282.762-1.4V-95.008a.878.878,0,0,1,.868-.869.863.863,0,0,1,.867.869v40.259a.863.863,0,0,1-.867.869A.878.878,0,0,1,4012.176-54.749Zm-51.113.032.4-43.359a.724.724,0,0,1,.761-.67h8.683a11.17,11.17,0,0,1,2.883-4.849,11.28,11.28,0,0,1,8.008-3.323,11.31,11.31,0,0,1,7.143,2.555,11.368,11.368,0,0,1,3.942,6.5.87.87,0,0,1-.7,1.017.841.841,0,0,1-1.016-.67,9.647,9.647,0,0,0-3.348-5.5,9.491,9.491,0,0,0-6.026-2.133,9.515,9.515,0,0,0-6.768,2.8,9.5,9.5,0,0,0-2.8,6.745,9.614,9.614,0,0,0,2.479,6.448,9.549,9.549,0,0,0,6.174,3.074.872.872,0,0,1,.793.967.868.868,0,0,1-.942.794,11.244,11.244,0,0,1-1.962-.362v15.626a.82.82,0,0,1-.9.694.809.809,0,0,1-.866-.694V-84.818s.468-.1.921-.143A11.459,11.459,0,0,1,3973.42-88a11.213,11.213,0,0,1-2.951-7.612,11.39,11.39,0,0,1,.142-1.8h-7.624l-.4,42.689a.709.709,0,0,1-.76.67A.723.723,0,0,1,3961.063-54.718Zm92.734-.592v-27.6a.884.884,0,0,1,.893-.868.879.879,0,0,1,.869.868v27.6a.863.863,0,0,1-.869.868A.868.868,0,0,1,4053.8-55.31Zm-221.323-.459a.85.85,0,0,1-.852-.851.845.845,0,0,1,.852-.829h2.558a.824.824,0,0,1,.829.829.829.829,0,0,1-.829.851Zm61.818-3.977v-2.6a.842.842,0,0,1,.851-.828.838.838,0,0,1,.829.828v2.6a.839.839,0,0,1-.829.829A.843.843,0,0,1,3894.292-59.746Zm-136.809,0v-2.6a.838.838,0,0,1,.829-.828.843.843,0,0,1,.852.828v2.6a.844.844,0,0,1-.852.829A.839.839,0,0,1,3757.484-59.746Zm-81.709,0v-2.6a.838.838,0,0,1,.829-.828.844.844,0,0,1,.853.828v2.6a.845.845,0,0,1-.853.829A.839.839,0,0,1,3675.775-59.746Zm-25.78.1a.849.849,0,0,1-.852-.852.844.844,0,0,1,.852-.829h2.558a.844.844,0,0,1,.851.829.849.849,0,0,1-.851.852Zm262.752-1.034v-27.6a.884.884,0,0,1,.893-.868.88.88,0,0,1,.869.868v27.6a.864.864,0,0,1-.869.868A.868.868,0,0,1,3912.747-60.683Zm-138.219-.457V-99.918l-17.663-7.031v26.207a.828.828,0,0,1-.828.852.844.844,0,0,1-.828-.852V-98.309h-9.494v8.878a.844.844,0,0,1-.829.852.848.848,0,0,1-.851-.852v-25.206l-13.242,3.818v5.669a.864.864,0,0,1-.062.323v7.022a.84.84,0,0,1-.829.83.847.847,0,0,1-.854-.83v-13.635a.826.826,0,0,1,.064-.321v-15.476l-15.08,3.906v11.161a.845.845,0,0,1-.853.829.839.839,0,0,1-.828-.829v-11.823a.861.861,0,0,1,.687-.829l16.073-4.144v-1.325a.844.844,0,0,1,.852-.829.841.841,0,0,1,.83.829v17.734l13.856-4a.868.868,0,0,1,1.042.567c0,.095.024.166.024.237v15.761h9.494v-8.191a.844.844,0,0,1,.828-.852,1.013,1.013,0,0,1,.38.095l19.246,7.694a.789.789,0,0,1,.521.757v7.2h13.305a.757.757,0,0,1,.639.829c0,.474-.284.829-.639.829h-13.305v30.492a.824.824,0,0,1-.829.829A.838.838,0,0,1,3774.528-61.141Zm-81.708,0V-99.918l-17.663-7.031v26.207a.828.828,0,0,1-.828.852.844.844,0,0,1-.828-.852V-98.309h-3.953v9.73a.844.844,0,0,1-.829.852.849.849,0,0,1-.852-.852v-33.095l-13.3,3.811V-89.5a.844.844,0,0,1-.83.853h-12.522a.849.849,0,0,1-.852-.852.843.843,0,0,1,.852-.828h11.67v-9.289l-9.547-3.685h-.016a.849.849,0,0,1-.852-.852v-13.351l-7.883-3.646-7.908,3.646v13.285a.824.824,0,0,1-.023.272.823.823,0,0,1-.539.6l-3.249,2.008v14.56a.844.844,0,0,1-.853.828.838.838,0,0,1-.828-.828v-15.033a.831.831,0,0,1,.4-.709l3.434-2.1v-13.408a.825.825,0,0,1,.474-.757l8.238-3.8v-2.55a.849.849,0,0,1,.852-.852.844.844,0,0,1,.828.852v2.539l8.193,3.782a.82.82,0,0,1,.544.782v13.308l8.735,3.364v-17.123a.862.862,0,0,1,.664-.829l14.937-4.285a.829.829,0,0,1,1.042.569c0,.071.023.142.023.237v22.8h3.953v-8.191a.844.844,0,0,1,.828-.852,1.01,1.01,0,0,1,.38.095l7.078,2.83v-10.714a.815.815,0,0,1,.45-.734l4.641-2.417v-11.194a.852.852,0,0,1,.5-.757l6.865-3.157v-2.076a.839.839,0,0,1,.83-.828.843.843,0,0,1,.851.828v2.075l6.819,3.133a.854.854,0,0,1,.545.782l.213,22.838,8.758-.994a.831.831,0,0,1,.924.734.845.845,0,0,1-.734.923l-9.707,1.113a.844.844,0,0,1-.923-.757v-.07l-.213-23.24-6.534-3.007-6.511,3.007v11.173a.84.84,0,0,1-.493.756l-4.6,2.37v10.251a.849.849,0,0,1-.2.556l10.69,4.273a.789.789,0,0,1,.521.757v7.2h13.305a.757.757,0,0,1,.639.829c0,.474-.284.829-.639.829h-13.305v30.492a.824.824,0,0,1-.829.829A.838.838,0,0,1,3692.82-61.141Zm139.654.4a.845.845,0,0,1-.852-.829.85.85,0,0,1,.852-.852h2.558a.83.83,0,0,1,.829.852.824.824,0,0,1-.829.829Zm-193.937-1.537v-15.1a.824.824,0,0,1,.829-.83.84.84,0,0,1,.83.83v15.1a.84.84,0,0,1-.83.829A.824.824,0,0,1,3638.537-62.277ZM3983.048-63.7a7.288,7.288,0,0,1-2.133-5.157,7.292,7.292,0,0,1,2.133-5.157,7.294,7.294,0,0,1,5.157-2.132,7.3,7.3,0,0,1,5.158,2.132,7.3,7.3,0,0,1,2.132,5.157,7.293,7.293,0,0,1-2.132,5.157,7.291,7.291,0,0,1-5.158,2.133A7.287,7.287,0,0,1,3983.048-63.7Zm1.24-9.075a5.527,5.527,0,0,0-1.612,3.917,5.526,5.526,0,0,0,1.612,3.918,5.523,5.523,0,0,0,3.917,1.611,5.521,5.521,0,0,0,3.917-1.611,5.527,5.527,0,0,0,1.613-3.918,5.528,5.528,0,0,0-1.613-3.917,5.522,5.522,0,0,0-3.917-1.612A5.523,5.523,0,0,0,3984.288-72.773Zm-260.32,9.762V-79.7a.845.845,0,0,1,.853-.829.841.841,0,0,1,.83.829v16.69a.826.826,0,0,1-.83.829A.83.83,0,0,1,3723.968-63.012Zm205.949.405a.885.885,0,0,1-.892-.87.89.89,0,0,1,.892-.892h2.678a.869.869,0,0,1,.869.892.864.864,0,0,1-.869.87ZM3859.2-65.238v-2.58a.845.845,0,0,1,.83-.852.85.85,0,0,1,.852.852v2.58a.85.85,0,0,1-.852.852A.845.845,0,0,1,3859.2-65.238Zm-53.525,0v-2.58a.85.85,0,0,1,.853-.852.845.845,0,0,1,.829.852v2.58a.845.845,0,0,1-.829.852A.85.85,0,0,1,3805.676-65.238Zm-155.682.616a.844.844,0,0,1-.852-.828.849.849,0,0,1,.852-.853h2.558a.849.849,0,0,1,.851.853.844.844,0,0,1-.851.828Zm182.479-.8a.845.845,0,0,1-.852-.829.85.85,0,0,1,.852-.852h2.558a.83.83,0,0,1,.829.852.824.824,0,0,1-.829.829Zm97.444-2.691a.87.87,0,0,1-.892-.869.869.869,0,0,1,.892-.868h2.678a.848.848,0,0,1,.869.868.849.849,0,0,1-.869.869Zm36.479-1.366v-2.7a.889.889,0,0,1,.893-.892.883.883,0,0,1,.868.892v2.7a.883.883,0,0,1-.868.892A.889.889,0,0,1,3966.4-69.474Zm-226.218-1.586a5.853,5.853,0,0,1-1.728-4.143,5.865,5.865,0,0,1,1.728-4.166,5.865,5.865,0,0,1,4.166-1.728,5.852,5.852,0,0,1,4.143,1.728,5.869,5.869,0,0,1,1.728,4.166,5.857,5.857,0,0,1-1.728,4.143,5.852,5.852,0,0,1-4.143,1.728A5.865,5.865,0,0,1,3740.178-71.061Zm1.183-7.125a4.18,4.18,0,0,0-1.23,2.982,4.166,4.166,0,0,0,1.23,2.959,4.229,4.229,0,0,0,2.983,1.231,4.169,4.169,0,0,0,2.959-1.231,4.163,4.163,0,0,0,1.231-2.959,4.177,4.177,0,0,0-1.231-2.982,4.169,4.169,0,0,0-2.959-1.231A4.229,4.229,0,0,0,3741.361-78.186Zm-82.891,7.125a5.849,5.849,0,0,1-1.729-4.143,5.861,5.861,0,0,1,1.729-4.166,5.864,5.864,0,0,1,4.165-1.728,5.854,5.854,0,0,1,4.144,1.728,5.87,5.87,0,0,1,1.728,4.166,5.858,5.858,0,0,1-1.728,4.143,5.854,5.854,0,0,1-4.144,1.728A5.864,5.864,0,0,1,3658.47-71.061Zm1.183-1.184a4.226,4.226,0,0,0,2.982,1.231,4.171,4.171,0,0,0,2.96-1.231,4.167,4.167,0,0,0,1.231-2.959,4.181,4.181,0,0,0-1.231-2.982,4.171,4.171,0,0,0-2.96-1.231,4.226,4.226,0,0,0-2.982,1.231,4.175,4.175,0,0,0-1.23,2.982A4.161,4.161,0,0,0,3659.653-72.245Zm126.752,1.525V-87.41a.846.846,0,0,1,.853-.83.842.842,0,0,1,.83.83v16.69a.825.825,0,0,1-.83.828A.83.83,0,0,1,3786.405-70.72Zm-3.853,0V-87.41a.846.846,0,0,1,.853-.83.841.841,0,0,1,.829.83v16.69a.825.825,0,0,1-.829.828A.83.83,0,0,1,3782.552-70.72Zm111.74-.151v-2.58a.848.848,0,0,1,.851-.852.844.844,0,0,1,.829.852v2.58a.843.843,0,0,1-.829.852A.847.847,0,0,1,3894.292-70.871Zm-136.809,0v-2.58a.844.844,0,0,1,.829-.852.849.849,0,0,1,.852.852v2.58a.848.848,0,0,1-.852.852A.843.843,0,0,1,3757.484-70.871Zm-81.709,0v-2.58a.844.844,0,0,1,.829-.852.849.849,0,0,1,.853.852v2.58a.849.849,0,0,1-.853.852A.844.844,0,0,1,3675.775-70.871Zm195.955.829a.825.825,0,0,1-.83-.83.831.831,0,0,1,.83-.852h15.546a.85.85,0,0,1,.85.852.845.845,0,0,1-.85.83Zm-174.15,0a.845.845,0,0,1-.852-.83.85.85,0,0,1,.852-.852h2.557a.83.83,0,0,1,.829.852.824.824,0,0,1-.829.83Zm134.895-.347a.831.831,0,0,1-.852-.829.83.83,0,0,1,.852-.829h2.558a.81.81,0,0,1,.829.829.81.81,0,0,1-.829.829ZM4046.6-71.582v-2.727a.879.879,0,0,1,.867-.868.883.883,0,0,1,.892.868v2.727a.867.867,0,0,1-.892.868A.862.862,0,0,1,4046.6-71.582ZM3907.043-73.5v-2.7a.89.89,0,0,1,.893-.892.886.886,0,0,1,.869.892v2.7a.885.885,0,0,1-.869.892A.889.889,0,0,1,3907.043-73.5Zm22.874-.613a.889.889,0,0,1-.892-.892.884.884,0,0,1,.892-.868h2.678a.863.863,0,0,1,.869.868.868.868,0,0,1-.869.892Zm16.459-1.7a5.626,5.626,0,0,1-1.662-3.967,5.642,5.642,0,0,1,1.662-3.992,5.561,5.561,0,0,1,3.967-1.636,5.558,5.558,0,0,1,3.966,1.636,5.639,5.639,0,0,1,1.663,3.992,5.623,5.623,0,0,1-1.663,3.967,5.559,5.559,0,0,1-3.966,1.637A5.562,5.562,0,0,1,3946.377-75.806Zm1.241-6.72a3.776,3.776,0,0,0-1.143,2.753,3.758,3.758,0,0,0,1.143,2.728,3.851,3.851,0,0,0,2.726,1.139,3.863,3.863,0,0,0,2.727-1.139,3.762,3.762,0,0,0,1.139-2.728,3.781,3.781,0,0,0-1.139-2.753,3.864,3.864,0,0,0-2.727-1.14A3.852,3.852,0,0,0,3947.618-82.526Zm-250.039,7.512a.831.831,0,0,1-.852-.829.83.83,0,0,1,.852-.829h2.557a.809.809,0,0,1,.829.829.81.81,0,0,1-.829.829Zm134.895-.8a.849.849,0,0,1-.852-.851.845.845,0,0,1,.852-.829h2.558a.824.824,0,0,1,.829.829.829.829,0,0,1-.829.851Zm-26.8-1.287v-2.6a.845.845,0,0,1,.853-.829.84.84,0,0,1,.829.829v2.6a.84.84,0,0,1-.829.829A.845.845,0,0,1,3805.676-77.1Zm-37.516-.284v-2.6a.824.824,0,0,1,.83-.829.823.823,0,0,1,.828.829v2.6a.823.823,0,0,1-.828.829A.824.824,0,0,1,3768.16-77.382Zm-81.709,0v-2.6a.824.824,0,0,1,.83-.829.823.823,0,0,1,.828.829v2.6a.823.823,0,0,1-.828.829A.824.824,0,0,1,3686.451-77.382ZM3966.4-78.518v-2.728a.883.883,0,0,1,.893-.867.878.878,0,0,1,.869.867v2.728a.879.879,0,0,1-.869.868A.884.884,0,0,1,3966.4-78.518Zm26.388.112a.889.889,0,0,1-.891-.893.883.883,0,0,1,.891-.868h2.679a.885.885,0,0,1,.893.868.89.89,0,0,1-.893.893Zm-62.867-1.206a.885.885,0,0,1-.892-.868.89.89,0,0,1,.892-.894h2.678a.869.869,0,0,1,.869.894.863.863,0,0,1-.869.868ZM4046.6-80.982v-2.726a.878.878,0,0,1,.867-.868.883.883,0,0,1,.892.868v2.726a.868.868,0,0,1-.892.869A.862.862,0,0,1,4046.6-80.982Zm-349.023.547a.85.85,0,0,1-.852-.852.845.845,0,0,1,.852-.829h2.557a.824.824,0,0,1,.829.829.829.829,0,0,1-.829.852Zm308.694-1.242V-97.5a.877.877,0,0,1,.868-.868.863.863,0,0,1,.869.868v15.819a.863.863,0,0,1-.869.868A.877.877,0,0,1,4006.273-81.678Zm16.74-1.842a6.135,6.135,0,0,1-1.811-4.339,6.146,6.146,0,0,1,1.811-4.364,6.13,6.13,0,0,1,4.34-1.81,6.146,6.146,0,0,1,4.363,1.81,6.144,6.144,0,0,1,1.81,4.364,6.133,6.133,0,0,1-1.81,4.339,6.146,6.146,0,0,1-4.363,1.81A6.13,6.13,0,0,1,4023.013-83.52Zm1.239-7.463a4.381,4.381,0,0,0-1.289,3.124,4.366,4.366,0,0,0,1.289,3.1,4.365,4.365,0,0,0,3.1,1.289,4.423,4.423,0,0,0,3.123-1.289,4.362,4.362,0,0,0,1.289-3.1,4.377,4.377,0,0,0-1.289-3.124,4.423,4.423,0,0,0-3.123-1.289A4.365,4.365,0,0,0,4024.252-90.983Zm-31.468,7.074a.883.883,0,0,1-.891-.867.888.888,0,0,1,.891-.893h2.679a.889.889,0,0,1,.893.893.884.884,0,0,1-.893.867Zm-224.933-1.617V-88.1a.83.83,0,0,1,.83-.853.844.844,0,0,1,.828.853v2.579a.844.844,0,0,1-.828.852A.83.83,0,0,1,3767.852-85.525Zm-81.708,0V-88.1a.829.829,0,0,1,.829-.853.844.844,0,0,1,.829.853v2.579a.844.844,0,0,1-.829.852A.829.829,0,0,1,3686.144-85.525Zm243.774.736a.884.884,0,0,1-.892-.869.89.89,0,0,1,.892-.892h2.678a.869.869,0,0,1,.869.892.863.863,0,0,1-.869.869Zm-232.338-.616a.845.845,0,0,1-.852-.829.85.85,0,0,1,.852-.852h2.557a.829.829,0,0,1,.829.852.824.824,0,0,1-.829.829Zm209.464-1.239v-2.727a.885.885,0,0,1,.893-.869.881.881,0,0,1,.869.869v2.727a.88.88,0,0,1-.869.868A.884.884,0,0,1,3907.043-86.645Zm-273.952-1.129v-3.077a.823.823,0,0,1,.828-.829.838.838,0,0,1,.829.829v3.077a.843.843,0,0,1-.829.852A.829.829,0,0,1,3633.092-87.774Zm333.3-.078v-2.7a.889.889,0,0,1,.893-.892.884.884,0,0,1,.869.892v2.7a.884.884,0,0,1-.869.893A.889.889,0,0,1,3966.4-87.851Zm-10.32-2.09v-25.044h-11.048s-.658-1.339-.308-1.339h11.967a.645.645,0,0,1,.611.67v25.714a.645.645,0,0,1-.611.67A.634.634,0,0,1,3956.076-89.942Zm21.268-1.308a6.13,6.13,0,0,1-1.811-4.339,6.149,6.149,0,0,1,1.811-4.364,6.129,6.129,0,0,1,4.339-1.81,6.149,6.149,0,0,1,4.365,1.81,6.149,6.149,0,0,1,1.81,4.364,6.13,6.13,0,0,1-1.81,4.339,6.145,6.145,0,0,1-4.365,1.81A6.125,6.125,0,0,1,3977.344-91.25Zm1.239-7.463a4.382,4.382,0,0,0-1.289,3.124,4.367,4.367,0,0,0,1.289,3.1,4.367,4.367,0,0,0,3.1,1.289,4.427,4.427,0,0,0,3.124-1.289,4.363,4.363,0,0,0,1.289-3.1,4.378,4.378,0,0,0-1.289-3.124,4.427,4.427,0,0,0-3.124-1.289A4.367,4.367,0,0,0,3978.583-98.713Zm-48.665,8.423a.869.869,0,0,1-.892-.868.869.869,0,0,1,.892-.869h2.678a.848.848,0,0,1,.869.869.848.848,0,0,1-.869.868Zm-162.066-3.354v-2.6a.824.824,0,0,1,.83-.829.839.839,0,0,1,.828.829v2.6a.839.839,0,0,1-.828.829A.825.825,0,0,1,3767.852-93.645Zm-5.444,0v-2.6a.824.824,0,0,1,.83-.829.823.823,0,0,1,.828.829v2.6a.824.824,0,0,1-.828.829A.824.824,0,0,1,3762.407-93.645Zm-76.264,0v-2.6a.823.823,0,0,1,.829-.829.839.839,0,0,1,.829.829v2.6a.839.839,0,0,1-.829.829A.824.824,0,0,1,3686.144-93.645Zm-5.445,0v-2.6a.824.824,0,0,1,.83-.829.823.823,0,0,1,.828.829v2.6a.824.824,0,0,1-.828.829A.825.825,0,0,1,3680.7-93.645Zm117.12.566a.843.843,0,0,1-.83-.851.839.839,0,0,1,.83-.829h2.579a.839.839,0,0,1,.829.829.843.843,0,0,1-.829.851Zm-81.709,0a.842.842,0,0,1-.829-.851.838.838,0,0,1,.829-.829h2.579a.839.839,0,0,1,.829.829.843.843,0,0,1-.829.851Zm231.727-1.781c-.938,0-1.646-.4-1.646-.893,0-.471.708-.868,1.646-.868h5.076c.933,0,1.688.4,1.688.868,0,.5-.755.893-1.688.893Zm109.771-2.262v-15.25l-3.57-2.207a.861.861,0,0,1-.3-1.19.861.861,0,0,1,1.191-.3l4.017,2.455a.871.871,0,0,1,.42.744v15.745a.878.878,0,0,1-.868.868A.884.884,0,0,1,4057.607-97.121Zm-127.69.829a.89.89,0,0,1-.892-.892.884.884,0,0,1,.892-.868h2.678a.863.863,0,0,1,.869.868.869.869,0,0,1-.869.892Zm105.4-2.2v-33.181a.858.858,0,0,1,.571-.819l8.58-3.962v-2.658a.884.884,0,0,1,.868-.893.889.889,0,0,1,.892.893v2.669l8.628,3.975a.866.866,0,0,1,.5.794v14.529a.868.868,0,0,1-.868.893.869.869,0,0,1-.867-.893v-13.984l-8.282-3.818-8.256,3.818v32.636a.889.889,0,0,1-.893.893A.885.885,0,0,1,4035.315-98.493ZM3633.092-98.9v-3.077a.824.824,0,0,1,.828-.829.839.839,0,0,1,.829.829V-98.9a.844.844,0,0,1-.829.853A.83.83,0,0,1,3633.092-98.9Zm164.727.852a.839.839,0,0,1-.83-.829.824.824,0,0,1,.83-.829h2.579a.824.824,0,0,1,.829.829.839.839,0,0,1-.829.829Zm-81.709,0a.838.838,0,0,1-.829-.829.823.823,0,0,1,.829-.829h2.579a.824.824,0,0,1,.829.829.839.839,0,0,1-.829.829Zm231.727-2.017c-.938,0-1.646-.4-1.646-.868,0-.5.708-.893,1.646-.893h5.076c.933,0,1.688.4,1.688.893,0,.472-.755.868-1.688.868Zm-17.919-1.728a.884.884,0,0,1-.892-.868.89.89,0,0,1,.892-.893h2.678a.869.869,0,0,1,.869.893.863.863,0,0,1-.869.868Zm-193.767-.535a.844.844,0,0,1-.83-.851.839.839,0,0,1,.83-.829h2.578a.839.839,0,0,1,.83.829.844.844,0,0,1-.83.851Zm-76.167-1.046a.838.838,0,0,1-.828-.829.844.844,0,0,1,.828-.852h2.58a.844.844,0,0,1,.829.852.839.839,0,0,1-.829.829Zm287.852-1.145c-.938,0-1.646-.373-1.646-.869s.708-.868,1.646-.868h5.076c.933,0,1.688.372,1.688.868s-.755.869-1.688.869Zm-253.586-1.46v-2.6a.844.844,0,0,1,.852-.829.839.839,0,0,1,.829.829v2.6a.823.823,0,0,1-.829.829A.829.829,0,0,1,3694.25-105.979Zm332.472-1.307v-34.664l-13.935,3.992v29.7a.884.884,0,0,1-.867.893.889.889,0,0,1-.893-.893V-138.6a.9.9,0,0,1,.7-.869l15.645-4.488a.868.868,0,0,1,1.091.6c0,.075.026.149.026.248v35.829a.884.884,0,0,1-.869.892A.889.889,0,0,1,4026.722-107.287Zm-290.571-.012a.839.839,0,0,1-.83-.828.823.823,0,0,1,.83-.829h2.578a.823.823,0,0,1,.83.829.839.839,0,0,1-.83.828Zm-76.167-1.023a.844.844,0,0,1-.828-.852.838.838,0,0,1,.828-.829h2.58a.838.838,0,0,1,.829.829.844.844,0,0,1-.829.852Zm287.852-.68c-.938,0-1.646-.4-1.646-.869,0-.5.708-.892,1.646-.892h5.076c.933,0,1.688.4,1.688.892,0,.472-.755.869-1.688.869Zm97.323-.978V-113.2a.879.879,0,0,1,.869-.869.863.863,0,0,1,.868.869v3.223a.867.867,0,0,1-.868.892A.884.884,0,0,1,4045.159-109.979Zm-412.068-.047V-113.1a.809.809,0,0,1,.828-.829.823.823,0,0,1,.829.829v3.078a.823.823,0,0,1-.829.828A.809.809,0,0,1,3633.092-110.026Zm26.892-3.268a.838.838,0,0,1-.828-.829.844.844,0,0,1,.828-.852h2.58a.844.844,0,0,1,.829.852.839.839,0,0,1-.829.829Zm33.688-1.368v-2.6a.844.844,0,0,1,.852-.829.839.839,0,0,1,.829.829v2.6a.823.823,0,0,1-.829.828A.829.829,0,0,1,3693.672-114.662Zm29.781-2.254v-2.58a.844.844,0,0,1,.829-.852.848.848,0,0,1,.851.852v2.58a.848.848,0,0,1-.851.852A.844.844,0,0,1,3723.453-116.916Zm-5.445,0v-2.58a.848.848,0,0,1,.852-.852.842.842,0,0,1,.827.852v2.58a.842.842,0,0,1-.827.852A.848.848,0,0,1,3718.008-116.916Zm327.152-5.4v-3.224a.863.863,0,0,1,.869-.868.847.847,0,0,1,.868.868v3.224a.847.847,0,0,1-.868.868A.863.863,0,0,1,4045.159-122.317Zm-29.823.636a.878.878,0,0,1-.867-.868.883.883,0,0,1,.867-.892h2.7a.883.883,0,0,1,.867.892.878.878,0,0,1-.867.868Zm0-6.285a.883.883,0,0,1-.867-.892.878.878,0,0,1,.867-.869h2.7a.878.878,0,0,1,.867.869.883.883,0,0,1-.867.892Zm0-5.207a.878.878,0,0,1-.867-.868.883.883,0,0,1,.867-.892h2.7a.883.883,0,0,1,.867.892.878.878,0,0,1-.867.868Z"
        data-name="Union 4" id="Union_4" transform="translate(-3620 144)"></path>
</svg>